# xmcd
#
# Track frame offsets:
#	150
#	13052
#	25990
#	39326
#	53166
#	66709
#	78693
#	91596
#	104417
#	118480
#	130592
#	143114
#
# Disc length: 2081 seconds
# Revision: 0
# Processed by: cddbd v1.5.2PL0 Copyright (c) Steve Scherf et al.
# Submitted via: dBpowerAMP V12.0
#
DISCID=a6081f0c
DTITLE=Merle Travis - The Best of Merle Travis [Capitol] (L)
DYEAR=1967
DGENRE=Country
TTITLE0=Sweet Temptation
TTITLE1=Sixteen Tons
TTITLE2=Follow Thru
TTITLE3=John Henry
TTITLE4=Three Times Seven
TTITLE5=Fat Gal
TTITLE6=I'm A Natural Born Gamblin' Man
TTITLE7=Dark As A Dungoen
TTITLE8=I'm Sick And Tired Of You Little Darlin'
TTITLE9=Nine Pound Hammer
TTITLE10=Steel Guitar Rag
TTITLE11=I Am A Pilgrim
EXTD=
EXTT0=
EXTT1=
EXTT2=
EXTT3=
EXTT4=
EXTT5=
EXTT6=
EXTT7=
EXTT8=
EXTT9=
EXTT10=
EXTT11=
PLAYORDER=
